<?xml version="1.0" encoding="utf-8"?>
<!-- Generator: Adobe Illustrator 27.0.0, SVG Export Plug-In . SVG Version: 6.00 Build 0)  -->
<svg version="1.1" id="_x32_" xmlns="http://www.w3.org/2000/svg" xmlns:xlink="http://www.w3.org/1999/xlink" x="0px" y="0px"
	 viewBox="0 0 512 512" style="enable-background:new 0 0 512 512;" xml:space="preserve">
<style type="text/css">
	.st0{fill:#004A8F;}
</style>
<g>
	<path class="st0" d="M290.2,153.5h-25h-6.6h-17.9h-7.1h-24.5c0,15.8-8.4,32.6-21.1,36.9V204h24.5h28.2h17.9h6.6h46.1v-13.7
		C298.7,186.1,290.2,169.3,290.2,153.5z"/>
	<path class="st0" d="M362.9,331.5h-25h-6.6h-17.9h-7.1h-5.5h-19h-6.1h-6.6h-17.9h-7.1h-14h-10.5h-14.5h-6.6h-17.9h-7.1h-24.5
		c0,15.8-8.4,32.7-21.1,36.9v13.7h24.5h28.2h17.9h0h6.6h17.9h28.2h0h9.5h8.4h6.6h9.5h28.2h8.4h9.5h6.6H384v-13.7
		C371.4,364.2,362.9,347.3,362.9,331.5z"/>
	<path class="st0" d="M323.1,238.8h-71.3l34.4,50.6h57.9v-13.7C331.5,271.4,323.1,254.6,323.1,238.8z"/>
	<path class="st0" d="M249.3,238.8H178c0,15.8-8.4,32.7-21.1,36.9v13.7h57.9L249.3,238.8z"/>
	<polygon class="st0" points="285,298.9 250.6,248.3 216.1,298.9 205.6,291.8 250.6,225.8 295.5,291.8 	"/>
	<path class="st0" d="M213.2,149.8c-5.5,0-9.9-4.5-9.9-9.9c0-5.5,4.4-9.9,9.9-9.9c1.2,0,2.3,0.2,3.4,0.6l-1.2,4.2
		c-5.6-0.8-5.4,3-5.4,5.1c0,1.8,1.4,3.2,3.2,3.2c0.5,0,4-0.3,4.4-0.6l0.3,7.2C216.5,150.5,214.8,149.8,213.2,149.8z"/>
	<polygon class="st0" points="212.1,148.4 203.2,149.8 199,143.6 211,146.1 	"/>
	<path class="st0" d="M286.8,149.8c5.5,0,9.9-4.5,9.9-9.9c0-5.5-4.4-9.9-9.9-9.9c-1.2,0-2.3,0.2-3.4,0.6l1.2,4.2
		c5.6-0.8,5.4,3,5.4,5.1c0,1.8-1.4,3.2-3.2,3.2c-0.5,0-4-0.3-4.4-0.6l-0.3,7.2C283.5,150.5,285.2,149.8,286.8,149.8z"/>
	<polygon class="st0" points="287.9,148.4 296.9,149.8 301,143.6 289.1,146.1 	"/>
	<rect x="213.3" y="214.6" class="st0" width="12.6" height="14.8"/>
	<rect x="243.9" y="270.4" class="st0" width="12.6" height="14.8"/>
	<rect x="272.3" y="214.6" class="st0" width="12.6" height="14.8"/>
	<rect x="175.4" y="306.2" class="st0" width="12.6" height="14.7"/>
	<rect x="243.9" y="306.2" class="st0" width="12.6" height="14.7"/>
	<rect x="310.3" y="306.2" class="st0" width="12.6" height="14.7"/>
</g>
</svg>
